<?xml version="1.0" encoding="utf-8"?>
<!-- Generator: Adobe Illustrator 20.0.0, SVG Export Plug-In . SVG Version: 6.00 Build 0)  -->
<svg version="1.1" id="Layer_1" xmlns="http://www.w3.org/2000/svg" xmlns:xlink="http://www.w3.org/1999/xlink" x="0px" y="0px"
	 viewBox="0 0 960 560" style="enable-background:new 0 0 960 560;" xml:space="preserve">
<style type="text/css">
	.st0{fill:#FEFEFE;}
	.st1{fill:#04ADD9;}
	.st2{fill:#FCFDFE;}
</style>
<g>
	<g>
		<path class="st0" d="M431.9,260.5c0-20.2,0.1-40.3-0.1-60.5c0-2.5,0.6-3.1,3.1-3.1c40.7,0.1,81.3,0.1,122,0c2.5,0,3.1,0.6,3.1,3.1
			c-0.1,40.7-0.1,81.3,0,122c0,2.5-0.6,3.1-3.1,3.1c-40.7-0.1-81.3-0.1-122,0c-2.5,0-3.1-0.6-3.1-3.1
			C432,301.5,431.9,281,431.9,260.5z"/>
		<path class="st1" d="M495.9,198.9c34.6,0,62.7,27.6,62.8,61.8c0.1,34.3-28.1,62.2-62.9,62.2c-34.4,0-62.8-28.1-62.6-62.1
			C433.4,226.6,461.4,198.9,495.9,198.9z"/>
		<path class="st0" d="M441.4,260.2c1.1-31.1,26-54.3,56.9-53.2c29.2,1,53.2,26.2,52.3,54.9c-1,30.6-26.3,54.1-57.3,53
			C464.6,313.9,440.4,288.4,441.4,260.2z"/>
		<path class="st1" d="M496.3,300.5c-0.8-3-1.5-5.5-2.1-8.1c-2.5-10.6-7.3-19.9-15.1-27.7c-1.8-1.8-3.4-3.7-4.9-5.7
			c-7.9-10.2-7.6-22.5,0.6-32.5c8.2-9.9,22-12.9,33.4-7.4c11.4,5.5,18.1,18.3,15.4,29.7c-1.1,4.8-4,8.7-7.1,12.4
			C502,278.6,501.9,278.8,496.3,300.5z"/>
		<path class="st2" d="M504.8,243.1c0.1,4.3-3.7,8.3-8.2,8.4c-4.4,0.2-8.5-3.7-8.6-8c-0.1-4.3,3.8-8.3,8.2-8.4
			C500.6,235,504.6,238.8,504.8,243.1z"/>
	</g>
</g>
</svg>
