<?xml version="1.0" standalone="no"?>
<!DOCTYPE svg PUBLIC "-//W3C//DTD SVG 20010904//EN"
 "http://www.w3.org/TR/2001/REC-SVG-20010904/DTD/svg10.dtd">
<svg version="1.0" xmlns="http://www.w3.org/2000/svg"
 width="260.000000pt" height="260.000000pt" viewBox="0 0 260.000000 260.000000"
 preserveAspectRatio="xMidYMid meet">
<metadata>
Created by potrace 1.11, written by Peter Selinger 2001-2013
</metadata>
<g transform="translate(0.000000,260.000000) scale(0.100000,-0.100000)"
fill="#000000" stroke="none">
<path d="M301 2543 c-80 -62 -232 -207 -274 -264 l-27 -36 0 -938 0 -938 37
-46 c62 -77 174 -184 267 -254 l88 -67 888 0 887 0 83 62 c98 73 236 207 303
295 l47 61 0 890 c0 779 -2 891 -15 902 -9 7 -15 29 -15 51 0 35 -3 39 -25 39
-18 0 -50 25 -118 93 -51 50 -127 118 -169 150 l-77 57 -903 0 -903 -1 -74
-56z"/>
</g>
</svg>
