<?xml version="1.0" encoding="iso-8859-1"?>
<!-- Generator: Adobe Illustrator 19.0.0, SVG Export Plug-In . SVG Version: 6.00 Build 0)  -->
<svg version="1.1" id="Capa_1" xmlns="http://www.w3.org/2000/svg" xmlns:xlink="http://www.w3.org/1999/xlink" x="0px" y="0px"
	 viewBox="0 0 60 60" style="enable-background:new 0 0 60 60;" xml:space="preserve">
<g>
	<path d="M20.5,27c6.617,0,12-5.383,12-12s-5.383-12-12-12s-12,5.383-12,12S13.883,27,20.5,27z M20.5,5c5.514,0,10,4.486,10,10
		s-4.486,10-10,10s-10-4.486-10-10S14.986,5,20.5,5z"/>
	<circle cx="30.5" cy="4" r="1"/>
	<path d="M54.5,42.656l-16.759,5.028C36.365,46.045,34.303,45,32,45c-0.334,0-0.66,0.03-0.983,0.072l-6.362-7.271
		c0.891-0.699,1.518-1.657,1.744-2.801H31.5c2.28,0,4-1.838,4-4.276V4.276C35.5,1.838,33.78,0,31.5,0H9.776
		C7.418,0,5.5,1.918,5.5,4.276v26.447c0,2.263,1.773,4.103,4,4.248V35h0.276h5.825c0.19,0.958,0.659,1.786,1.326,2.444l8.138,12.207
		C24.703,50.53,24.5,51.491,24.5,52.5c0,4.136,3.364,7.5,7.5,7.5c3.363,0,6.215-2.225,7.164-5.279L54.5,50.775V42.656z M7.5,30.724
		V4.276C7.5,3.021,8.521,2,9.776,2H31.5c1.374,0,2,1.18,2,2.276v26.447c0,1.096-0.626,2.276-2,2.276v-1.074
		c0-2.165-1.761-3.926-3.926-3.926H13.426C11.261,28,9.5,29.761,9.5,31.926v1.046C8.376,32.834,7.5,31.884,7.5,30.724z M24.343,35
		c-0.469,1.374-1.911,2-3.343,2s-2.874-0.626-3.343-2H24.343z M20.369,39h2.678l5.845,6.681c-0.016,0.007-0.031,0.017-0.047,0.025
		c-0.224,0.105-0.442,0.22-0.654,0.345c-0.039,0.023-0.078,0.047-0.118,0.072c-0.198,0.122-0.389,0.253-0.574,0.393
		c-0.037,0.027-0.074,0.054-0.11,0.082c-0.2,0.156-0.392,0.322-0.575,0.497c-0.013,0.013-0.027,0.024-0.041,0.037
		c-0.202,0.196-0.394,0.401-0.573,0.619L20.369,39z M52.5,49.225l-13,3.344c0-0.022,0-0.045,0-0.069c0-0.185-0.012-0.38-0.03-0.584
		c-0.011-0.141-0.027-0.279-0.045-0.418c-0.001-0.01-0.002-0.019-0.003-0.029l-0.036-0.238c-0.002-0.012-0.005-0.021-0.007-0.033
		c-0.022-0.127-0.047-0.253-0.076-0.378c-0.042-0.194-0.086-0.371-0.131-0.511l-0.003-0.008c-0.006-0.018-0.011-0.036-0.017-0.054
		l-0.024-0.079c-0.018-0.054-0.047-0.113-0.066-0.168c-0.066-0.186-0.136-0.369-0.216-0.547c-0.002-0.004-0.003-0.008-0.005-0.012
		L52.5,45.344V49.225z"/>
	<path d="M20.5,23c4.411,0,8-3.589,8-8s-3.589-8-8-8s-8,3.589-8,8S16.089,23,20.5,23z M20.5,10c0.552,0,1,0.448,1,1s-0.448,1-1,1
		c-1.654,0-3,1.346-3,3c0,0.552-0.448,1-1,1s-1-0.448-1-1C15.5,12.243,17.743,10,20.5,10z"/>
</g>
<g>
</g>
<g>
</g>
<g>
</g>
<g>
</g>
<g>
</g>
<g>
</g>
<g>
</g>
<g>
</g>
<g>
</g>
<g>
</g>
<g>
</g>
<g>
</g>
<g>
</g>
<g>
</g>
<g>
</g>
</svg>
