<?xml version="1.0" encoding="iso-8859-1"?>
<!-- Generator: Adobe Illustrator 19.0.0, SVG Export Plug-In . SVG Version: 6.00 Build 0)  -->
<svg version="1.1" id="Capa_1" xmlns="http://www.w3.org/2000/svg" xmlns:xlink="http://www.w3.org/1999/xlink" x="0px" y="0px"
	 viewBox="0 0 59.039 59.039" style="enable-background:new 0 0 59.039 59.039;" xml:space="preserve">
<g>
	<path d="M58.039,5.011h-21c-0.553,0-1,0.448-1,1h-11h-8c-0.451,0-0.846,0.302-0.965,0.737l-3,11
		c-0.004,0.013-0.002,0.026-0.005,0.039c-6.501,3.021-11.03,9.596-11.03,17.224c0,0.552,0.447,1,1,1h2.039
		c0.069,1.099,0.257,2.187,0.553,3.256l-2.569,2.03c-0.208,0.165-0.342,0.405-0.373,0.668c-0.031,0.263,0.044,0.528,0.209,0.736
		l0.62,0.784l-3.138,2.48c-0.434,0.342-0.507,0.971-0.164,1.405l4.96,6.277c0.164,0.208,0.404,0.342,0.668,0.373
		c0.039,0.004,0.077,0.007,0.116,0.007c0.224,0,0.442-0.075,0.62-0.215l3.138-2.48l0.62,0.785c0.197,0.25,0.489,0.38,0.785,0.38
		c0.217,0,0.436-0.07,0.619-0.215l3.186-2.518c1.956,0.814,4.006,1.248,6.109,1.248c8.372,0,15.25-6.466,15.932-14.665
		c0.038-0.106,0.068-0.216,0.068-0.335h2c0.553,0,1-0.448,1-1c0-8.044-5.033-14.92-12.109-17.687l-0.784-4.313h8.893
		c0,0.552,0.447,1,1,1h3c6.056,0,9,3.271,9,10c0,0.552,0.447,1,1,1h8c0.553,0,1-0.448,1-1v-18
		C59.039,5.459,58.592,5.011,58.039,5.011z M6.125,51.623l-3.721-4.708l2.354-1.86l3.721,4.708L6.125,51.623z M11.288,50.092
		l-4.313-5.457l-1.268-1.604c0,0-0.001,0-0.001,0l-0.619-0.784l2.354-1.859l5.304,6.711l0.896,1.134L11.288,50.092z M24.921,48.459
		c0.07-0.136,0.118-0.284,0.118-0.448c0-0.552-0.448-1-1-1s-1,0.448-1,1c0,0.324,0.165,0.599,0.404,0.782
		c-0.782,0.136-1.583,0.218-2.404,0.218c-0.273,0-0.542-0.022-0.813-0.038c0.459-0.09,0.813-0.476,0.813-0.962c0-0.552-0.448-1-1-1
		s-1,0.448-1,1c0,0.443,0.292,0.806,0.691,0.938c-1.278-0.121-2.531-0.419-3.744-0.892c-0.035-0.099-0.087-0.193-0.156-0.28
		l-4.906-6.208c-0.06-0.12-0.143-0.222-0.244-0.309l-2.29-2.898c-0.003-0.003-0.007-0.005-0.009-0.008
		c-0.075-0.093-0.166-0.164-0.263-0.223c-0.028-0.017-0.056-0.029-0.086-0.043c-0.083-0.04-0.168-0.067-0.257-0.082
		c-0.027-0.005-0.052-0.012-0.078-0.015c-0.11-0.01-0.22-0.008-0.329,0.02c-0.146-0.661-0.243-1.328-0.292-2h27.929
		c-0.034,0.479-0.095,0.949-0.176,1.414c-0.182-0.245-0.46-0.414-0.789-0.414c-0.552,0-1,0.448-1,1c0,0.552,0.448,1,1,1
		c0.161,0,0.307-0.046,0.441-0.114C33.148,43.497,29.521,47.129,24.921,48.459z M38.01,34.011h-1.971h-30H4.068
		c0.503-8.635,7.486-15.54,16.143-15.96c1.262-0.015,2.534,0.055,3.685,0.216c0.017,0.003,0.034,0.005,0.051,0.008
		c0.159,0.023,0.312,0.05,0.466,0.076C31.859,19.857,37.557,26.24,38.01,34.011z M24.726,16.377
		c-0.155-0.026-0.312-0.049-0.471-0.072c-1.048-0.18-2.118-0.294-3.216-0.294c-0.242,0-0.477,0.027-0.718,0.036
		c-1.707,0.013-3.404,0.175-4.845,0.494l2.326-8.531h6.401l1.558,8.567c-0.257-0.06-0.534-0.107-0.808-0.157
		C24.879,16.405,24.802,16.392,24.726,16.377z M26.783,11.011l-0.546-3h9.802v3H26.783z M57.039,23.011h-6.021
		c-0.314-7.203-4.094-11-10.979-11h-2v-5h19V23.011z"/>
	<circle cx="10.039" cy="38.011" r="1"/>
	<circle cx="14.039" cy="38.011" r="1"/>
	<circle cx="18.039" cy="38.011" r="1"/>
	<circle cx="22.039" cy="38.011" r="1"/>
	<circle cx="26.039" cy="38.011" r="1"/>
	<circle cx="30.039" cy="38.011" r="1"/>
	<circle cx="32.039" cy="40.011" r="1"/>
	<circle cx="28.039" cy="40.011" r="1"/>
	<circle cx="24.039" cy="40.011" r="1"/>
	<circle cx="26.039" cy="42.011" r="1"/>
	<circle cx="30.039" cy="42.011" r="1"/>
	<circle cx="20.039" cy="40.011" r="1"/>
	<circle cx="16.039" cy="40.011" r="1"/>
	<circle cx="18.039" cy="42.011" r="1"/>
	<circle cx="12.039" cy="40.011" r="1"/>
	<circle cx="14.039" cy="42.011" r="1"/>
	<circle cx="16.039" cy="44.011" r="1"/>
	<circle cx="20.039" cy="44.011" r="1"/>
	<circle cx="24.039" cy="44.011" r="1"/>
	<circle cx="28.039" cy="44.011" r="1"/>
	<circle cx="22.039" cy="42.011" r="1"/>
	<circle cx="26.039" cy="46.011" r="1"/>
	<circle cx="22.039" cy="46.011" r="1"/>
	<circle cx="18.039" cy="46.011" r="1"/>
	<path d="M25.039,31.011c0,0.552,0.447,1,1,1h9c0.553,0,1-0.448,1-1s-0.447-1-1-1h-9C25.486,30.011,25.039,30.459,25.039,31.011z"/>
	<path d="M23.039,26.011c-0.553,0-1,0.448-1,1s0.447,1,1,1h9c0.553,0,1-0.448,1-1s-0.447-1-1-1H23.039z"/>
</g>
<g>
</g>
<g>
</g>
<g>
</g>
<g>
</g>
<g>
</g>
<g>
</g>
<g>
</g>
<g>
</g>
<g>
</g>
<g>
</g>
<g>
</g>
<g>
</g>
<g>
</g>
<g>
</g>
<g>
</g>
</svg>
